<mxfile host="app.diagrams.net" modified="2024-04-13T20:59:31.480Z" agent="Mozilla/5.0 (Windows NT 10.0; Win64; x64) AppleWebKit/537.36 (KHTML, like Gecko) Chrome/123.0.0.0 Safari/537.36 Edg/123.0.0.0" etag="0Kwd9U0KXyLAWPTrt0FJ" version="24.2.5" type="github">
  <diagram name="Page-1" id="mi1ZdIoF31G9QeY4VSFI">
    <mxGraphModel dx="1813" dy="837" grid="1" gridSize="10" guides="1" tooltips="1" connect="1" arrows="1" fold="1" page="1" pageScale="1" pageWidth="850" pageHeight="1100" math="0" shadow="0">
      <root>
        <mxCell id="0" />
        <mxCell id="1" parent="0" />
        <mxCell id="iAeULeoAePsO8EVuGWnt-25" value="User" style="swimlane;startSize=20;html=1;" vertex="1" parent="1">
          <mxGeometry x="340" y="159.9999999999999" width="425" height="460" as="geometry" />
        </mxCell>
        <mxCell id="iAeULeoAePsO8EVuGWnt-26" value="" style="ellipse;html=1;shape=startState;fillColor=#000000;strokeColor=#0D0D0D;" vertex="1" parent="iAeULeoAePsO8EVuGWnt-25">
          <mxGeometry x="297.5" y="30" width="30" height="30" as="geometry" />
        </mxCell>
        <mxCell id="iAeULeoAePsO8EVuGWnt-27" style="edgeStyle=orthogonalEdgeStyle;rounded=0;orthogonalLoop=1;jettySize=auto;html=1;" edge="1" parent="iAeULeoAePsO8EVuGWnt-25" source="iAeULeoAePsO8EVuGWnt-28" target="iAeULeoAePsO8EVuGWnt-34">
          <mxGeometry relative="1" as="geometry" />
        </mxCell>
        <mxCell id="iAeULeoAePsO8EVuGWnt-28" value="Select Event" style="rounded=1;whiteSpace=wrap;html=1;arcSize=40;fontColor=#000000;fillColor=#FFFFFF;strokeColor=#0D0D0D;" vertex="1" parent="iAeULeoAePsO8EVuGWnt-25">
          <mxGeometry x="220" y="100" width="185" height="50" as="geometry" />
        </mxCell>
        <mxCell id="iAeULeoAePsO8EVuGWnt-29" style="edgeStyle=orthogonalEdgeStyle;rounded=0;orthogonalLoop=1;jettySize=auto;html=1;entryX=0.5;entryY=0;entryDx=0;entryDy=0;exitX=0.5;exitY=1;exitDx=0;exitDy=0;" edge="1" parent="iAeULeoAePsO8EVuGWnt-25" source="iAeULeoAePsO8EVuGWnt-26" target="iAeULeoAePsO8EVuGWnt-28">
          <mxGeometry relative="1" as="geometry">
            <mxPoint x="312.5" y="40" as="sourcePoint" />
          </mxGeometry>
        </mxCell>
        <mxCell id="iAeULeoAePsO8EVuGWnt-30" value="Click Save changes" style="rounded=1;whiteSpace=wrap;html=1;arcSize=40;fontColor=#000000;fillColor=#FFFFFF;strokeColor=#0D0D0D;" vertex="1" parent="iAeULeoAePsO8EVuGWnt-25">
          <mxGeometry x="30" y="340" width="140" height="40" as="geometry" />
        </mxCell>
        <mxCell id="iAeULeoAePsO8EVuGWnt-31" style="edgeStyle=orthogonalEdgeStyle;rounded=0;orthogonalLoop=1;jettySize=auto;html=1;entryX=0.5;entryY=0;entryDx=0;entryDy=0;exitX=0.5;exitY=1;exitDx=0;exitDy=0;" edge="1" parent="iAeULeoAePsO8EVuGWnt-25" source="iAeULeoAePsO8EVuGWnt-34" target="iAeULeoAePsO8EVuGWnt-36">
          <mxGeometry relative="1" as="geometry" />
        </mxCell>
        <mxCell id="iAeULeoAePsO8EVuGWnt-32" style="edgeStyle=orthogonalEdgeStyle;rounded=0;orthogonalLoop=1;jettySize=auto;html=1;entryX=0;entryY=0.5;entryDx=0;entryDy=0;" edge="1" parent="iAeULeoAePsO8EVuGWnt-25" source="iAeULeoAePsO8EVuGWnt-33" target="iAeULeoAePsO8EVuGWnt-28">
          <mxGeometry relative="1" as="geometry" />
        </mxCell>
        <mxCell id="iAeULeoAePsO8EVuGWnt-33" value="Get prompt from to&lt;div&gt;&amp;nbsp;enter details&lt;/div&gt;" style="html=1;shape=mxgraph.sysml.accEvent;strokeWidth=2;whiteSpace=wrap;align=center;rotation=0;" vertex="1" parent="iAeULeoAePsO8EVuGWnt-25">
          <mxGeometry x="20" y="100" width="150" height="50" as="geometry" />
        </mxCell>
        <mxCell id="iAeULeoAePsO8EVuGWnt-34" value="Click Volunteer" style="rounded=1;whiteSpace=wrap;html=1;arcSize=40;fontColor=#000000;fillColor=#FFFFFF;strokeColor=#0D0D0D;" vertex="1" parent="iAeULeoAePsO8EVuGWnt-25">
          <mxGeometry x="220" y="205" width="185" height="50" as="geometry" />
        </mxCell>
        <mxCell id="iAeULeoAePsO8EVuGWnt-35" style="edgeStyle=orthogonalEdgeStyle;rounded=0;orthogonalLoop=1;jettySize=auto;html=1;entryX=1;entryY=0.5;entryDx=0;entryDy=0;" edge="1" parent="iAeULeoAePsO8EVuGWnt-25" source="iAeULeoAePsO8EVuGWnt-36" target="iAeULeoAePsO8EVuGWnt-30">
          <mxGeometry relative="1" as="geometry" />
        </mxCell>
        <mxCell id="iAeULeoAePsO8EVuGWnt-36" value="Enter Details&lt;div&gt;&lt;span style=&quot;background-color: initial;&quot;&gt;(title and description)&lt;/span&gt;&lt;/div&gt;" style="rounded=1;whiteSpace=wrap;html=1;arcSize=40;fontColor=#000000;fillColor=#FFFFFF;strokeColor=#0D0D0D;" vertex="1" parent="iAeULeoAePsO8EVuGWnt-25">
          <mxGeometry x="220" y="335" width="185" height="50" as="geometry" />
        </mxCell>
        <mxCell id="iAeULeoAePsO8EVuGWnt-37" value="Event Management" style="swimlane;startSize=20;html=1;" vertex="1" parent="1">
          <mxGeometry x="-40" y="159.9999999999999" width="380" height="460" as="geometry" />
        </mxCell>
        <mxCell id="iAeULeoAePsO8EVuGWnt-38" value="Checks if user entered all details" style="rounded=1;whiteSpace=wrap;html=1;arcSize=40;fontColor=#000000;fillColor=#FFFFFF;strokeColor=#0D0D0D;" vertex="1" parent="iAeULeoAePsO8EVuGWnt-37">
          <mxGeometry x="170" y="340" width="187.5" height="40" as="geometry" />
        </mxCell>
        <mxCell id="iAeULeoAePsO8EVuGWnt-39" style="edgeStyle=orthogonalEdgeStyle;rounded=0;orthogonalLoop=1;jettySize=auto;html=1;entryX=0.5;entryY=0;entryDx=0;entryDy=0;" edge="1" parent="iAeULeoAePsO8EVuGWnt-37" source="iAeULeoAePsO8EVuGWnt-41" target="iAeULeoAePsO8EVuGWnt-47">
          <mxGeometry relative="1" as="geometry" />
        </mxCell>
        <mxCell id="iAeULeoAePsO8EVuGWnt-40" value="true" style="edgeLabel;html=1;align=center;verticalAlign=middle;resizable=0;points=[];" vertex="1" connectable="0" parent="iAeULeoAePsO8EVuGWnt-39">
          <mxGeometry x="-0.0605" y="-2" relative="1" as="geometry">
            <mxPoint as="offset" />
          </mxGeometry>
        </mxCell>
        <mxCell id="iAeULeoAePsO8EVuGWnt-41" value="" style="strokeWidth=2;html=1;shape=mxgraph.flowchart.decision;whiteSpace=wrap;" vertex="1" parent="iAeULeoAePsO8EVuGWnt-37">
          <mxGeometry x="238.75" y="205" width="50" height="50" as="geometry" />
        </mxCell>
        <mxCell id="iAeULeoAePsO8EVuGWnt-42" style="edgeStyle=orthogonalEdgeStyle;rounded=0;orthogonalLoop=1;jettySize=auto;html=1;entryX=0.5;entryY=1;entryDx=0;entryDy=0;entryPerimeter=0;" edge="1" parent="iAeULeoAePsO8EVuGWnt-37" source="iAeULeoAePsO8EVuGWnt-38" target="iAeULeoAePsO8EVuGWnt-41">
          <mxGeometry relative="1" as="geometry" />
        </mxCell>
        <mxCell id="iAeULeoAePsO8EVuGWnt-43" value="Prompts user to&amp;nbsp;&lt;div&gt;enter all details&lt;/div&gt;" style="html=1;shadow=0;dashed=0;align=center;verticalAlign=middle;shape=mxgraph.arrows2.arrow;dy=0;dx=10;notch=0;rotation=0;" vertex="1" parent="iAeULeoAePsO8EVuGWnt-37">
          <mxGeometry x="201.25" y="100" width="125" height="50" as="geometry" />
        </mxCell>
        <mxCell id="iAeULeoAePsO8EVuGWnt-44" style="edgeStyle=orthogonalEdgeStyle;rounded=0;orthogonalLoop=1;jettySize=auto;html=1;" edge="1" parent="iAeULeoAePsO8EVuGWnt-37" source="iAeULeoAePsO8EVuGWnt-41" target="iAeULeoAePsO8EVuGWnt-43">
          <mxGeometry relative="1" as="geometry" />
        </mxCell>
        <mxCell id="iAeULeoAePsO8EVuGWnt-45" value="false" style="edgeLabel;html=1;align=center;verticalAlign=middle;resizable=0;points=[];" vertex="1" connectable="0" parent="iAeULeoAePsO8EVuGWnt-44">
          <mxGeometry x="-0.0727" y="5" relative="1" as="geometry">
            <mxPoint y="-1" as="offset" />
          </mxGeometry>
        </mxCell>
        <mxCell id="iAeULeoAePsO8EVuGWnt-46" style="edgeStyle=orthogonalEdgeStyle;rounded=0;orthogonalLoop=1;jettySize=auto;html=1;entryX=0.5;entryY=0;entryDx=0;entryDy=0;" edge="1" parent="iAeULeoAePsO8EVuGWnt-37" source="iAeULeoAePsO8EVuGWnt-47" target="iAeULeoAePsO8EVuGWnt-48">
          <mxGeometry relative="1" as="geometry" />
        </mxCell>
        <mxCell id="iAeULeoAePsO8EVuGWnt-47" value="Save the volunteering details in&amp;nbsp;&lt;div&gt;Database&lt;/div&gt;" style="rounded=1;whiteSpace=wrap;html=1;arcSize=40;fontColor=#000000;fillColor=#FFFFFF;strokeColor=#0D0D0D;" vertex="1" parent="iAeULeoAePsO8EVuGWnt-37">
          <mxGeometry x="20" y="255" width="190" height="40" as="geometry" />
        </mxCell>
        <mxCell id="iAeULeoAePsO8EVuGWnt-48" value="" style="ellipse;html=1;shape=endState;fillColor=#000000;strokeColor=#0D0D0D;" vertex="1" parent="iAeULeoAePsO8EVuGWnt-37">
          <mxGeometry x="100" y="400" width="30" height="30" as="geometry" />
        </mxCell>
        <mxCell id="iAeULeoAePsO8EVuGWnt-49" style="edgeStyle=orthogonalEdgeStyle;rounded=0;orthogonalLoop=1;jettySize=auto;html=1;entryX=1;entryY=0.5;entryDx=0;entryDy=0;" edge="1" parent="1" source="iAeULeoAePsO8EVuGWnt-30" target="iAeULeoAePsO8EVuGWnt-38">
          <mxGeometry relative="1" as="geometry" />
        </mxCell>
        <mxCell id="iAeULeoAePsO8EVuGWnt-50" style="edgeStyle=orthogonalEdgeStyle;rounded=0;orthogonalLoop=1;jettySize=auto;html=1;entryX=0;entryY=0.5;entryDx=15;entryDy=0;entryPerimeter=0;" edge="1" parent="1" source="iAeULeoAePsO8EVuGWnt-43" target="iAeULeoAePsO8EVuGWnt-33">
          <mxGeometry relative="1" as="geometry" />
        </mxCell>
      </root>
    </mxGraphModel>
  </diagram>
</mxfile>
